<svg id="visual" viewBox="0 0 960 540" width="960" height="540" xmlns="http://www.w3.org/2000/svg" xmlns:xlink="http://www.w3.org/1999/xlink" version="1.1"><rect x="0" y="0" width="960" height="540" fill="#031625"></rect><path d="M0 370L22.8 364.5C45.7 359 91.3 348 137 343C182.7 338 228.3 339 274 339.2C319.7 339.3 365.3 338.7 411.2 337.7C457 336.7 503 335.3 548.8 339.8C594.7 344.3 640.3 354.7 686 354.5C731.7 354.3 777.3 343.7 823 338C868.7 332.3 914.3 331.7 937.2 331.3L960 331L960 541L937.2 541C914.3 541 868.7 541 823 541C777.3 541 731.7 541 686 541C640.3 541 594.7 541 548.8 541C503 541 457 541 411.2 541C365.3 541 319.7 541 274 541C228.3 541 182.7 541 137 541C91.3 541 45.7 541 22.8 541L0 541Z" fill="#b71b9f"></path><path d="M0 391L22.8 386.3C45.7 381.7 91.3 372.3 137 374C182.7 375.7 228.3 388.3 274 391.7C319.7 395 365.3 389 411.2 382.8C457 376.7 503 370.3 548.8 371.8C594.7 373.3 640.3 382.7 686 384C731.7 385.3 777.3 378.7 823 377.3C868.7 376 914.3 380 937.2 382L960 384L960 541L937.2 541C914.3 541 868.7 541 823 541C777.3 541 731.7 541 686 541C640.3 541 594.7 541 548.8 541C503 541 457 541 411.2 541C365.3 541 319.7 541 274 541C228.3 541 182.7 541 137 541C91.3 541 45.7 541 22.8 541L0 541Z" fill="#ce0085"></path><path d="M0 396L22.8 398.8C45.7 401.7 91.3 407.3 137 411.2C182.7 415 228.3 417 274 416.2C319.7 415.3 365.3 411.7 411.2 410.7C457 409.7 503 411.3 548.8 412.5C594.7 413.7 640.3 414.3 686 413.2C731.7 412 777.3 409 823 409.5C868.7 410 914.3 414 937.2 416L960 418L960 541L937.2 541C914.3 541 868.7 541 823 541C777.3 541 731.7 541 686 541C640.3 541 594.7 541 548.8 541C503 541 457 541 411.2 541C365.3 541 319.7 541 274 541C228.3 541 182.7 541 137 541C91.3 541 45.7 541 22.8 541L0 541Z" fill="#db006a"></path><path d="M0 449L22.8 449C45.7 449 91.3 449 137 448.7C182.7 448.3 228.3 447.7 274 447.5C319.7 447.3 365.3 447.7 411.2 445C457 442.3 503 436.7 548.8 435.8C594.7 435 640.3 439 686 442.2C731.7 445.3 777.3 447.7 823 445.7C868.7 443.7 914.3 437.3 937.2 434.2L960 431L960 541L937.2 541C914.3 541 868.7 541 823 541C777.3 541 731.7 541 686 541C640.3 541 594.7 541 548.8 541C503 541 457 541 411.2 541C365.3 541 319.7 541 274 541C228.3 541 182.7 541 137 541C91.3 541 45.7 541 22.8 541L0 541Z" fill="#e1004e"></path><path d="M0 475L22.8 474C45.7 473 91.3 471 137 471.7C182.7 472.3 228.3 475.7 274 476.7C319.7 477.7 365.3 476.3 411.2 474C457 471.7 503 468.3 548.8 469C594.7 469.7 640.3 474.3 686 476C731.7 477.7 777.3 476.3 823 473.5C868.7 470.7 914.3 466.3 937.2 464.2L960 462L960 541L937.2 541C914.3 541 868.7 541 823 541C777.3 541 731.7 541 686 541C640.3 541 594.7 541 548.8 541C503 541 457 541 411.2 541C365.3 541 319.7 541 274 541C228.3 541 182.7 541 137 541C91.3 541 45.7 541 22.8 541L0 541Z" fill="#e1002e"></path><path d="M0 505L22.8 503.8C45.7 502.7 91.3 500.3 137 500.5C182.7 500.7 228.3 503.3 274 505.2C319.7 507 365.3 508 411.2 508C457 508 503 507 548.8 505C594.7 503 640.3 500 686 500.7C731.7 501.3 777.3 505.7 823 507.3C868.7 509 914.3 508 937.2 507.5L960 507L960 541L937.2 541C914.3 541 868.7 541 823 541C777.3 541 731.7 541 686 541C640.3 541 594.7 541 548.8 541C503 541 457 541 411.2 541C365.3 541 319.7 541 274 541C228.3 541 182.7 541 137 541C91.3 541 45.7 541 22.8 541L0 541Z" fill="#da0f00"></path></svg>